# xmcd
# 
# Track frame offsets:
#     150
#     14853
#     27244
#     41884
#     57772
#     68198
#     89560
#     104557
#     117624
#     135045
#     153461
#     165449
#     179380
#     195261
# 
# Disc length: 2767
# 
# Revision: 0
# Processed by: cddbd v1.5.2PL0 Copyright (c) Steve Scherf et al.
# Submitted via: fre:ac v1.0.17
# 
DISCID=be0acd0e
DTITLE=Roger Cicero - Männersachen
DYEAR=2006
DGENRE=Swing
TTITLE0=Zieh Die Schuh Aus
TTITLE1=Kein Mann Für Eine Frau
TTITLE2=Kompromisse
TTITLE3=Ich Atme Ein (New Version)
TTITLE4=Schiess Mich Doch Zum Mond (Fly Me To The Moon - In Other Words)
TTITLE5=Wenn Sie Dich Fragt
TTITLE6=Fachmann In Sachen Anna
TTITLE7=Ich Idiot Ließ Dich Gehen
TTITLE8=Mein Guter Stern Auf Allen Wegen
TTITLE9=Murphys Gesetz
TTITLE10=Schön Dass Du Da Bist
TTITLE11=Das Ganze Leben Ist Ein Zoo
TTITLE12=Du Willst Es Doch Auch
TTITLE13=So Geil Berlin
EXTD=
EXTT0=
EXTT1=
EXTT2=
EXTT3=
EXTT4=
EXTT5=
EXTT6=
EXTT7=
EXTT8=
EXTT9=
EXTT10=
EXTT11=
EXTT12=
EXTT13=
PLAYORDER=
